# xmcd
#
# Track frame offsets:
# 150
# 12990
# 28695
# 38987
# 50262
# 68127
# 81492
# 88950
# 105947
# 119470
# 138502
# 148902
# 165510
# 178020
# 190862
# 204812
# 218842
# 231832
# 241710
# 253777
# 264240
#
# Disc length: 3685 seconds
#
#
# Revision: 5
# Processed by: cddbd v1.5.1PL0 Copyright (c) Steve Scherf et al.
# Submitted via: FreeRIP 2.941 
#
DISCID=250e6315
DTITLE=Jennings, Nelson, Colter and Glaser - Wanted! The Outlaws (1976-1996 20th Anniversary)
DYEAR=1995
DGENRE=Country
TTITLE0=Waylon Jennings - My Heroes Have Always Been Cowboys
TTITLE1=Waylon Jennings - Honky Tonk Heroes (Like Me)
TTITLE2=Jessi Colter - I'm Looking for Blue Eyes
TTITLE3=Jessi Colter - You Mean to Say
TTITLE4=Waylon Jennings and Jessi Colter - Suspicious Minds
TTITLE5=Waylon Jennings and Willie Nelson - Good Hearted Woman, A
TTITLE6=Waylon Jennings and Willie Nelson - Heaven and Hell
TTITLE7=Willie Nelson - Me and Paul
TTITLE8=Willie Nelson - Yesterday's Wine
TTITLE9=Tompall Glaser - T for Texas
TTITLE10=Tompall Glaser - Put Another Log on the Fire
TTITLE11=Waylon Jennings - Slow Movin' Outlaws
TTITLE12=Waylon Jennings - (I'm A) Ramblin' Man
TTITLE13=Jessi Colter - If She's Where You Like Livin' (You Won't Feel at Home With Me)
TTITLE14=Jessi Colter - It's Not Easy
TTITLE15=Jessi Colter - Why You Been Gone So Long
TTITLE16=Waylon Jennings and Jessi Colter - Under Your Spell Again
TTITLE17=Waylon Jennings and Jessi Colter - I Ain't the One
TTITLE18=Willie Nelson - You Left a Long, Long Time Ago
TTITLE19=Willie Nelson - Healing Hands of Time
TTITLE20=Waylon Jennings and Willie Nelson - Nowhere Road
EXTD=With 10 Additional Songs\nRCA
EXTT0=
EXTT1=
EXTT2=
EXTT3=
EXTT4=
EXTT5=
EXTT6=
EXTT7=
EXTT8=
EXTT9=
EXTT10=
EXTT11=
EXTT12=
EXTT13=
EXTT14=
EXTT15=
EXTT16=
EXTT17=
EXTT18=
EXTT19=
EXTT20=
PLAYORDER=
